<svg xmlns="http://www.w3.org/2000/svg" xmlns:xlink="http://www.w3.org/1999/xlink" width="20" height="20" viewBox="0 0 50 50">
    <defs>
        <path id="prefix__a" d="M42.513 27.85c.225-.149.491-.446.487-1.018-.004-.205-.039-.424-.104-.655-.339-1.229-1.447-2.72-2.038-3.094C27.424 14.543 21.652 10.707 9.432.435c-.445-.376-.776-.504-1.044-.4-.13.051-.3.177-.353.508-.162.987.25 4.287 1.058 4.969 9.778 8.223 13.079 10.422 24.092 17.81l2.7 1.884-3.161 2.146-1.382.982c-7.692 5.293-15.31 10.833-22.653 16.478-.236.182-.5.556-.408 1.305.172 1.407 1.447 3.336 2.484 3.784.447.19.747.07.92-.062 9.99-7.677 20.363-15.074 30.828-21.989"/>
    </defs>
    <g fill="none" fill-rule="evenodd">
        <use fill="#00B2A9" transform="matrix(-1 0 0 1 51 0)" xlink:href="#prefix__a"/>
    </g>
</svg>
